<svg xmlns="http://www.w3.org/2000/svg" xmlns:xlink="http://www.w3.org/1999/xlink" width="90" zoomAndPan="magnify" viewBox="0 0 67.5 33.749998" height="45" preserveAspectRatio="xMidYMid meet" version="1.2"><defs><clipPath id="64770c0302"><path d="M 10 8.808594 L 17 8.808594 L 17 21 L 10 21 Z M 10 8.808594 "/></clipPath><clipPath id="91e5e5f52c"><path d="M 21 14 L 29.78125 14 L 29.78125 24 L 21 24 Z M 21 14 "/></clipPath></defs><g id="473c992de7"><g clip-rule="nonzero" clip-path="url(#64770c0302)"><path style="fill-rule:nonzero;fill:#4b6858;fill-opacity:1;stroke-width:0.25;stroke-linecap:butt;stroke-linejoin:miter;stroke:#3d1b03;stroke-opacity:1;stroke-miterlimit:10;" d="M 507.602833 590.66933 C 522.585621 583.850241 529.212623 571.844802 535.551495 559.935407 C 553.415588 526.896439 544.963759 493.473298 541.602236 482.716425 C 540.641801 479.450946 539.681366 476.953814 538.528844 474.456683 C 533.054363 462.643331 527.291753 453.423154 522.00936 446.123848 C 515.574445 437.191801 509.811834 430.948973 508.563268 429.604364 C 508.563268 429.604364 508.083051 429.028103 507.698877 428.547885 C 451.225293 365.063125 468.321038 328.854722 468.321038 328.854722 C 475.332214 313.967978 492.235872 302.5388 510.676226 299.753539 C 451.801554 301.002104 404.452104 371.305953 404.452104 457.841156 C 404.452104 510.665086 422.028066 557.438276 449.208379 586.155285 C 457.083947 590.093069 483.495912 601.714334 507.602833 590.66933 Z M 507.602833 590.66933 " transform="matrix(0.0406717,0,0,0.0406717,-6.105993,-3.375071)"/></g><path style="fill-rule:nonzero;fill:#4b6858;fill-opacity:1;stroke-width:0.25;stroke-linecap:butt;stroke-linejoin:miter;stroke:#3d1b03;stroke-opacity:1;stroke-miterlimit:10;" d="M 566.765635 321.267285 C 544.195411 311.951064 520.760794 313.48776 506.642398 325.301112 C 493.100263 336.634246 492.620046 353.537904 492.620046 356.035035 C 492.331915 382.254914 517.207184 392.627613 544.579585 429.604364 C 559.370285 449.48537 572.048028 467.733637 576.562073 491.936602 C 584.725772 535.540355 566.381461 602.290595 523.257925 615.256468 C 577.714596 607.188814 620.165827 539.76627 620.165827 457.841156 C 620.165827 399.638789 598.748124 348.735729 566.765635 321.267285 Z M 566.765635 321.267285 " transform="matrix(0.0406717,0,0,0.0406717,-6.105993,-3.375071)"/><path style="fill-rule:nonzero;fill:#4b6858;fill-opacity:1;stroke-width:0.25;stroke-linecap:butt;stroke-linejoin:miter;stroke:#3d1b03;stroke-opacity:1;stroke-miterlimit:10;" d="M 682.978282 633.984953 C 698.057113 637.346476 709.198161 632.5443 719.955034 627.742125 C 750.208739 614.296033 760.101221 586.155285 762.790439 576.839065 C 763.558787 574.053803 764.135048 571.748759 764.423179 569.443714 C 765.959875 558.206624 765.959875 548.506229 765.479657 540.534618 C 764.807353 530.73818 763.3667 523.246786 763.07857 521.614046 C 763.07857 521.614046 762.982526 521.037785 762.886483 520.365481 C 750.112696 445.163412 781.326836 429.028103 781.326836 429.028103 C 794.196667 422.401101 813.021195 423.74571 828.868374 431.813365 C 782.287272 400.50318 710.446726 423.841753 667.707364 484.541252 C 641.679573 521.518003 632.459396 563.873191 639.470572 598.833028 C 643.696487 606.036292 658.679274 628.510473 682.978282 633.984953 Z M 682.978282 633.984953 " transform="matrix(0.0406717,0,0,0.0406717,-6.105993,-3.375071)"/><g clip-rule="nonzero" clip-path="url(#91e5e5f52c)"><path style="fill-rule:nonzero;fill:#4b6858;fill-opacity:1;stroke-width:0.25;stroke-linecap:butt;stroke-linejoin:miter;stroke:#3d1b03;stroke-opacity:1;stroke-miterlimit:10;" d="M 862.003385 477.530075 C 848.941467 458.705547 829.828809 446.892196 812.925151 447.468457 C 796.885885 448.044718 788.145926 459.569939 786.89736 461.394766 C 773.739399 479.546989 788.145926 500.484474 791.315362 541.302966 C 793.044145 563.29693 794.00458 582.985849 785.552751 602.482682 C 770.47392 637.442519 723.220513 674.13114 683.074326 659.724614 C 729.655428 683.831535 796.117537 659.820657 836.551855 602.386638 C 865.172821 561.568146 873.432562 514.218696 862.003385 477.530075 Z M 862.003385 477.530075 " transform="matrix(0.0406717,0,0,0.0406717,-6.105993,-3.375071)"/></g><path style="fill-rule:nonzero;fill:#4b6858;fill-opacity:1;stroke-width:0.25;stroke-linecap:butt;stroke-linejoin:miter;stroke:#3d1b03;stroke-opacity:1;stroke-miterlimit:10;" d="M 242.714833 425.66658 C 242.714833 425.66658 273.928974 441.80189 261.059143 517.003958 C 260.9631 517.676262 260.867056 518.252524 260.867056 518.252524 C 260.578926 519.885263 259.138273 527.376657 258.562012 537.269138 C 257.985751 545.144706 258.081795 554.845101 259.618491 566.082191 C 259.906621 568.387236 260.386839 570.69228 261.25123 573.477542 C 263.940449 582.889806 273.83293 610.934511 303.990592 624.380602 C 314.843509 629.182777 325.984556 633.984953 341.063387 630.62343 C 365.362395 625.14895 380.249139 602.674769 384.475054 595.567549 C 391.48623 560.607711 382.266053 518.252524 356.238262 481.179729 C 313.594943 420.48023 241.754398 397.141658 195.077252 428.547885 C 210.924431 420.384187 229.845003 419.135621 242.714833 425.66658 Z M 242.714833 425.66658 " transform="matrix(0.0406717,0,0,0.0406717,-6.105993,-3.375071)"/><path style="fill-rule:nonzero;fill:#4b6858;fill-opacity:1;stroke-width:0.25;stroke-linecap:butt;stroke-linejoin:miter;stroke:#3d1b03;stroke-opacity:1;stroke-miterlimit:10;" d="M 238.392875 599.121159 C 230.03709 579.624326 230.997525 559.935407 232.726308 537.941443 C 235.895744 497.122951 250.30227 476.185466 237.14431 458.033243 C 235.895744 456.208416 227.155784 444.683195 211.020475 444.106934 C 194.212861 443.530673 175.100202 455.344025 161.942241 474.168552 C 150.513064 510.857173 158.772805 558.206624 187.489815 599.025115 C 227.924133 656.459134 294.386241 680.470012 340.967344 656.363091 C 300.821157 670.769617 253.56775 634.080996 238.392875 599.121159 Z M 238.392875 599.121159 " transform="matrix(0.0406717,0,0,0.0406717,-6.105993,-3.375071)"/><path style="fill-rule:nonzero;fill:#4b6858;fill-opacity:1;stroke-width:0.25;stroke-linecap:butt;stroke-linejoin:miter;stroke:#3d1b03;stroke-opacity:1;stroke-miterlimit:10;" d="M 331.266949 401.84779 C 329.057948 393.876178 330.210471 386.576871 331.747167 378.413173 C 334.436385 363.334342 340.487126 356.611296 336.453299 348.831772 C 336.069125 348.063424 333.47595 343.069161 327.713339 341.724552 C 321.758642 340.2839 314.459335 343.357292 308.984855 349.408033 C 303.414331 362.373907 304.47081 380.718217 313.114726 398.102093 C 325.216208 422.593188 348.074563 436.32741 365.650526 430.660842 C 350.763782 433.254017 335.300777 416.062229 331.266949 401.84779 Z M 331.266949 401.84779 " transform="matrix(0.0406717,0,0,0.0406717,-6.105993,-3.375071)"/><path style="fill-rule:nonzero;fill:#4b6858;fill-opacity:1;stroke-width:0.25;stroke-linecap:butt;stroke-linejoin:miter;stroke:#3d1b03;stroke-opacity:1;stroke-miterlimit:10;" d="M 339.718778 337.114464 C 339.718778 337.114464 350.283564 345.374206 342.696127 372.650563 C 342.600083 372.84265 342.600083 373.13078 342.600083 373.13078 C 342.407996 373.707041 341.543605 376.396259 340.967344 380.045913 C 340.487126 383.023262 340.102952 386.576871 340.198996 390.898829 C 340.198996 391.859265 340.295039 392.723656 340.487126 393.876178 C 341.063387 397.525832 343.464475 408.762922 353.741131 415.966185 C 357.390784 418.55936 361.136481 421.152535 366.707004 421.056492 C 375.543007 420.672317 381.785835 413.373011 383.610662 411.067966 C 387.452402 398.390223 385.915706 381.870739 378.136182 366.119604 C 365.266352 340.2839 340.679213 326.357591 322.719077 334.713376 C 328.673774 332.792506 335.492864 333.656898 339.718778 337.114464 Z M 339.718778 337.114464 " transform="matrix(0.0406717,0,0,0.0406717,-6.105993,-3.375071)"/><path style="fill-rule:nonzero;fill:#4b6858;fill-opacity:1;stroke-width:0.25;stroke-linecap:butt;stroke-linejoin:miter;stroke:#3d1b03;stroke-opacity:1;stroke-miterlimit:10;" d="M 722.067991 346.622771 C 716.593511 340.475987 709.294204 337.402594 703.339506 338.843247 C 697.576896 340.187856 694.887678 345.182119 694.503504 345.950467 C 690.56572 353.729991 696.520417 360.453037 699.305679 375.627911 C 700.842375 383.695566 701.994897 390.994873 699.785897 398.966484 C 695.752069 413.180924 680.289064 430.372712 665.40232 427.779537 C 682.978282 433.446104 705.740594 419.711882 717.93812 395.220787 C 726.485992 377.836912 727.542471 359.492602 722.067991 346.622771 Z M 722.067991 346.622771 " transform="matrix(0.0406717,0,0,0.0406717,-6.105993,-3.375071)"/><path style="fill-rule:nonzero;fill:#4b6858;fill-opacity:1;stroke-width:0.25;stroke-linecap:butt;stroke-linejoin:miter;stroke:#3d1b03;stroke-opacity:1;stroke-miterlimit:10;" d="M 664.345841 418.175186 C 669.916365 418.367273 673.662062 415.678055 677.311715 413.08488 C 687.588371 405.881617 689.989459 394.644526 690.56572 390.994873 C 690.757807 389.842351 690.85385 388.977959 690.85385 388.113568 C 690.949894 383.79161 690.56572 380.141956 690.085502 377.164607 C 689.509241 373.514954 688.644849 370.825736 688.452762 370.249475 C 688.452762 370.249475 688.452762 370.057388 688.356719 369.769257 C 680.769282 342.4929 691.334068 334.233159 691.334068 334.233159 C 695.559982 330.871636 702.379071 329.911201 708.333769 331.832071 C 690.373633 323.476285 665.786494 337.402594 653.012707 363.238299 C 645.137139 378.989434 643.600443 395.604961 647.442184 408.186661 C 649.26701 410.491705 655.509839 417.887056 664.345841 418.175186 Z M 664.345841 418.175186 " transform="matrix(0.0406717,0,0,0.0406717,-6.105993,-3.375071)"/><g style="fill:#4b6858;fill-opacity:1;"><g transform="translate(29.963893, 20.1011)"><path style="stroke:none" d="M 0.84375 -7.890625 L 3.71875 -7.890625 C 4.238281 -7.890625 4.6875 -7.835938 5.0625 -7.734375 C 5.445312 -7.628906 5.757812 -7.484375 6 -7.296875 C 6.238281 -7.109375 6.414062 -6.882812 6.53125 -6.625 C 6.65625 -6.375 6.71875 -6.101562 6.71875 -5.8125 C 6.71875 -5.507812 6.640625 -5.265625 6.484375 -5.078125 C 6.335938 -4.890625 6.175781 -4.742188 6 -4.640625 C 5.800781 -4.503906 5.566406 -4.40625 5.296875 -4.34375 L 5.296875 -4.28125 C 5.691406 -4.226562 6.039062 -4.117188 6.34375 -3.953125 C 6.46875 -3.890625 6.59375 -3.8125 6.71875 -3.71875 C 6.851562 -3.625 6.96875 -3.507812 7.0625 -3.375 C 7.15625 -3.25 7.234375 -3.101562 7.296875 -2.9375 C 7.359375 -2.769531 7.390625 -2.582031 7.390625 -2.375 C 7.390625 -2.050781 7.320312 -1.742188 7.1875 -1.453125 C 7.050781 -1.160156 6.847656 -0.90625 6.578125 -0.6875 C 6.304688 -0.476562 5.960938 -0.3125 5.546875 -0.1875 C 5.140625 -0.0625 4.664062 0 4.125 0 L 0.84375 0 Z M 4.125 -0.953125 C 4.363281 -0.953125 4.578125 -0.988281 4.765625 -1.0625 C 4.960938 -1.132812 5.128906 -1.234375 5.265625 -1.359375 C 5.410156 -1.492188 5.519531 -1.644531 5.59375 -1.8125 C 5.664062 -1.988281 5.703125 -2.175781 5.703125 -2.375 C 5.703125 -2.5625 5.664062 -2.742188 5.59375 -2.921875 C 5.519531 -3.097656 5.410156 -3.25 5.265625 -3.375 C 5.128906 -3.5 4.960938 -3.597656 4.765625 -3.671875 C 4.578125 -3.742188 4.363281 -3.78125 4.125 -3.78125 L 2.421875 -3.78125 L 2.421875 -0.953125 Z M 3.71875 -4.6875 C 4.144531 -4.6875 4.46875 -4.785156 4.6875 -4.984375 C 4.90625 -5.191406 5.015625 -5.46875 5.015625 -5.8125 C 5.015625 -6.144531 4.90625 -6.414062 4.6875 -6.625 C 4.46875 -6.832031 4.144531 -6.9375 3.71875 -6.9375 L 2.421875 -6.9375 L 2.421875 -4.6875 Z M 3.71875 -4.6875 "/></g></g><g style="fill:#4b6858;fill-opacity:1;"><g transform="translate(37.470816, 20.1011)"><path style="stroke:none" d="M 0.734375 -4.171875 C 0.734375 -4.429688 0.722656 -4.648438 0.703125 -4.828125 C 0.679688 -5.015625 0.660156 -5.171875 0.640625 -5.296875 C 0.609375 -5.429688 0.582031 -5.546875 0.5625 -5.640625 L 2.03125 -5.640625 C 2.039062 -5.546875 2.0625 -5.457031 2.09375 -5.375 C 2.101562 -5.300781 2.113281 -5.226562 2.125 -5.15625 C 2.132812 -5.082031 2.140625 -5.019531 2.140625 -4.96875 L 2.203125 -4.96875 C 2.316406 -5.113281 2.460938 -5.25 2.640625 -5.375 C 2.785156 -5.488281 2.96875 -5.585938 3.1875 -5.671875 C 3.414062 -5.765625 3.6875 -5.8125 4 -5.8125 C 4.113281 -5.8125 4.210938 -5.800781 4.296875 -5.78125 C 4.390625 -5.757812 4.46875 -5.738281 4.53125 -5.71875 C 4.601562 -5.6875 4.671875 -5.660156 4.734375 -5.640625 L 4.453125 -4.734375 L 4.234375 -4.796875 C 4.160156 -4.804688 4.070312 -4.816406 3.96875 -4.828125 C 3.875 -4.835938 3.773438 -4.84375 3.671875 -4.84375 C 3.472656 -4.84375 3.285156 -4.804688 3.109375 -4.734375 C 2.929688 -4.671875 2.773438 -4.597656 2.640625 -4.515625 C 2.484375 -4.410156 2.335938 -4.296875 2.203125 -4.171875 L 2.203125 0 L 0.734375 0 Z M 0.734375 -4.171875 "/></g></g><g style="fill:#4b6858;fill-opacity:1;"><g transform="translate(41.934319, 20.1011)"><path style="stroke:none" d="M 3.109375 0.171875 C 2.734375 0.171875 2.398438 0.117188 2.109375 0.015625 C 1.816406 -0.0859375 1.566406 -0.234375 1.359375 -0.421875 C 1.160156 -0.609375 1.003906 -0.832031 0.890625 -1.09375 C 0.785156 -1.351562 0.734375 -1.628906 0.734375 -1.921875 L 0.734375 -5.640625 L 2.203125 -5.640625 L 2.203125 -1.921875 C 2.203125 -1.492188 2.316406 -1.160156 2.546875 -0.921875 C 2.773438 -0.679688 3.070312 -0.5625 3.4375 -0.5625 C 3.664062 -0.5625 3.867188 -0.609375 4.046875 -0.703125 C 4.234375 -0.796875 4.390625 -0.898438 4.515625 -1.015625 C 4.660156 -1.148438 4.789062 -1.300781 4.90625 -1.46875 L 4.90625 -5.640625 L 6.375 -5.640625 L 6.375 -1.46875 C 6.375 -1.207031 6.378906 -0.984375 6.390625 -0.796875 C 6.410156 -0.617188 6.429688 -0.46875 6.453125 -0.34375 C 6.484375 -0.207031 6.515625 -0.09375 6.546875 0 L 5.078125 0 C 5.054688 -0.0820312 5.035156 -0.164062 5.015625 -0.25 C 5.003906 -0.3125 4.992188 -0.382812 4.984375 -0.46875 C 4.972656 -0.550781 4.96875 -0.617188 4.96875 -0.671875 L 4.90625 -0.671875 C 4.789062 -0.515625 4.644531 -0.375 4.46875 -0.25 C 4.3125 -0.144531 4.125 -0.0507812 3.90625 0.03125 C 3.6875 0.125 3.421875 0.171875 3.109375 0.171875 Z M 3.109375 0.171875 "/></g></g><g style="fill:#4b6858;fill-opacity:1;"><g transform="translate(48.764928, 20.1011)"><path style="stroke:none" d="M 0.734375 -4.171875 C 0.734375 -4.429688 0.722656 -4.648438 0.703125 -4.828125 C 0.679688 -5.015625 0.660156 -5.171875 0.640625 -5.296875 C 0.609375 -5.429688 0.582031 -5.546875 0.5625 -5.640625 L 2.03125 -5.640625 C 2.039062 -5.546875 2.0625 -5.457031 2.09375 -5.375 C 2.101562 -5.300781 2.113281 -5.226562 2.125 -5.15625 C 2.132812 -5.082031 2.140625 -5.019531 2.140625 -4.96875 L 2.203125 -4.96875 C 2.316406 -5.113281 2.457031 -5.25 2.625 -5.375 C 2.757812 -5.488281 2.929688 -5.585938 3.140625 -5.671875 C 3.359375 -5.765625 3.609375 -5.8125 3.890625 -5.8125 C 4.242188 -5.8125 4.546875 -5.757812 4.796875 -5.65625 C 5.046875 -5.550781 5.25 -5.441406 5.40625 -5.328125 C 5.59375 -5.191406 5.742188 -5.03125 5.859375 -4.84375 L 5.921875 -4.84375 C 6.066406 -5.03125 6.238281 -5.191406 6.4375 -5.328125 C 6.59375 -5.441406 6.785156 -5.550781 7.015625 -5.65625 C 7.242188 -5.757812 7.5 -5.8125 7.78125 -5.8125 C 8.125 -5.8125 8.429688 -5.757812 8.703125 -5.65625 C 8.972656 -5.550781 9.203125 -5.40625 9.390625 -5.21875 C 9.578125 -5.039062 9.722656 -4.820312 9.828125 -4.5625 C 9.929688 -4.3125 9.984375 -4.03125 9.984375 -3.71875 L 9.984375 0 L 8.515625 0 L 8.515625 -3.71875 C 8.515625 -4.175781 8.414062 -4.515625 8.21875 -4.734375 C 8.019531 -4.960938 7.765625 -5.078125 7.453125 -5.078125 C 7.253906 -5.078125 7.070312 -5.03125 6.90625 -4.9375 C 6.738281 -4.84375 6.59375 -4.738281 6.46875 -4.625 C 6.332031 -4.488281 6.207031 -4.335938 6.09375 -4.171875 L 6.09375 0 L 4.625 0 L 4.625 -3.71875 C 4.625 -4.175781 4.523438 -4.515625 4.328125 -4.734375 C 4.128906 -4.960938 3.867188 -5.078125 3.546875 -5.078125 C 3.359375 -5.078125 3.179688 -5.03125 3.015625 -4.9375 C 2.847656 -4.84375 2.703125 -4.738281 2.578125 -4.625 C 2.441406 -4.488281 2.316406 -4.335938 2.203125 -4.171875 L 2.203125 0 L 0.734375 0 Z M 0.734375 -4.171875 "/></g></g><g style="fill:#4b6858;fill-opacity:1;"><g transform="translate(59.202545, 20.1011)"><path style="stroke:none" d="M 2.59375 0.171875 C 2.226562 0.171875 1.898438 0.117188 1.609375 0.015625 C 1.328125 -0.078125 1.085938 -0.207031 0.890625 -0.375 C 0.691406 -0.539062 0.539062 -0.738281 0.4375 -0.96875 C 0.332031 -1.195312 0.28125 -1.4375 0.28125 -1.6875 C 0.28125 -1.96875 0.332031 -2.226562 0.4375 -2.46875 C 0.539062 -2.71875 0.691406 -2.925781 0.890625 -3.09375 C 1.085938 -3.269531 1.328125 -3.410156 1.609375 -3.515625 C 1.898438 -3.617188 2.226562 -3.671875 2.59375 -3.671875 C 2.851562 -3.671875 3.085938 -3.644531 3.296875 -3.59375 C 3.515625 -3.550781 3.707031 -3.5 3.875 -3.4375 C 4.070312 -3.375 4.25 -3.300781 4.40625 -3.21875 L 4.40625 -3.5 C 4.40625 -4.007812 4.269531 -4.398438 4 -4.671875 C 3.738281 -4.941406 3.382812 -5.078125 2.9375 -5.078125 C 2.675781 -5.078125 2.445312 -5.035156 2.25 -4.953125 C 2.050781 -4.867188 1.878906 -4.78125 1.734375 -4.6875 C 1.566406 -4.5625 1.421875 -4.425781 1.296875 -4.28125 L 0.84375 -4.6875 C 1 -4.894531 1.1875 -5.082031 1.40625 -5.25 C 1.601562 -5.382812 1.84375 -5.507812 2.125 -5.625 C 2.414062 -5.75 2.757812 -5.8125 3.15625 -5.8125 C 3.582031 -5.8125 3.960938 -5.75 4.296875 -5.625 C 4.628906 -5.507812 4.910156 -5.347656 5.140625 -5.140625 C 5.378906 -4.929688 5.554688 -4.6875 5.671875 -4.40625 C 5.796875 -4.125 5.859375 -3.820312 5.859375 -3.5 L 5.859375 -1.46875 C 5.859375 -1.207031 5.863281 -0.984375 5.875 -0.796875 C 5.894531 -0.617188 5.914062 -0.46875 5.9375 -0.34375 C 5.96875 -0.207031 6 -0.09375 6.03125 0 L 4.5625 0 C 4.539062 -0.0820312 4.523438 -0.164062 4.515625 -0.25 C 4.492188 -0.3125 4.476562 -0.382812 4.46875 -0.46875 C 4.457031 -0.550781 4.453125 -0.617188 4.453125 -0.671875 L 4.40625 -0.671875 C 4.28125 -0.515625 4.128906 -0.375 3.953125 -0.25 C 3.804688 -0.144531 3.617188 -0.0507812 3.390625 0.03125 C 3.171875 0.125 2.90625 0.171875 2.59375 0.171875 Z M 2.9375 -0.5625 C 3.15625 -0.5625 3.351562 -0.609375 3.53125 -0.703125 C 3.71875 -0.796875 3.875 -0.898438 4 -1.015625 C 4.144531 -1.148438 4.28125 -1.300781 4.40625 -1.46875 L 4.40625 -2.53125 C 4.28125 -2.601562 4.144531 -2.671875 4 -2.734375 C 3.875 -2.785156 3.71875 -2.832031 3.53125 -2.875 C 3.351562 -2.914062 3.15625 -2.9375 2.9375 -2.9375 C 2.613281 -2.9375 2.34375 -2.820312 2.125 -2.59375 C 1.914062 -2.363281 1.8125 -2.0625 1.8125 -1.6875 C 1.8125 -1.375 1.914062 -1.109375 2.125 -0.890625 C 2.34375 -0.671875 2.613281 -0.5625 2.9375 -0.5625 Z M 2.9375 -0.5625 "/></g></g></g></svg>